<?xml version="1.0" encoding="utf-8"?>
<!-- Generator: Adobe Illustrator 25.2.0, SVG Export Plug-In . SVG Version: 6.00 Build 0)  -->
<svg version="1.1" id="Layer_1" xmlns="http://www.w3.org/2000/svg" xmlns:xlink="http://www.w3.org/1999/xlink" x="0px" y="0px"
	 viewBox="0 0 26.2 25.5" style="enable-background:new 0 0 26.2 25.5;" xml:space="preserve">
<style type="text/css">
	.st0{fill:#A3A3A3;}
</style>
<path id="Path_13" class="st0" d="M12.5,25.1c0.6,0.5,1.4,0.5,2,0l11.4-11.4c0.3-0.3,0.4-0.6,0.4-1c0-0.4-0.1-0.7-0.4-1L14.5,0.4
	c-0.3-0.3-0.6-0.4-1-0.4c-0.4,0-0.7,0.1-1,0.4l-1.3,1.3c-0.3,0.3-0.4,0.6-0.4,1c0,0.4,0.2,0.7,0.4,1l7,6.7H1.4c-0.4,0-0.7,0.1-1,0.4
	c-0.3,0.3-0.4,0.6-0.4,1l0,1.9c0,0.4,0.1,0.7,0.4,1c0.3,0.3,0.6,0.4,1,0.4h16.8l-7,6.7c-0.3,0.3-0.4,0.6-0.4,1c0,0.4,0.1,0.7,0.4,1
	L12.5,25.1z"/>
</svg>
