<svg width="50" height="50" viewBox="0 0 50 50" fill="none" xmlns="http://www.w3.org/2000/svg">
<g clip-path="url(#clip0_4_26)">
<path d="M50 0H0V50H50V0Z" fill="#512BD4"/>
<path d="M8.91165 31.9444C8.55812 31.9444 8.25761 31.8267 8.01013 31.591C7.76266 31.3494 7.63892 31.0624 7.63892 30.7302C7.63892 30.3918 7.76266 30.1019 8.01013 29.8602C8.25761 29.6185 8.55812 29.4977 8.91165 29.4977C9.27108 29.4977 9.57453 29.6185 9.82201 29.8602C10.0754 30.1019 10.2021 30.3918 10.2021 30.7302C10.2021 31.0624 10.0754 31.3494 9.82201 31.591C9.57453 31.8267 9.27108 31.9444 8.91165 31.9444Z" fill="white"/>
<path d="M23.0446 31.7451H20.7466L14.6923 22.1936C14.5391 21.952 14.4123 21.7012 14.3122 21.4414H14.2592C14.3063 21.7194 14.3299 22.3145 14.3299 23.2266V31.7451H12.297V18.75H14.7452L20.5963 28.0749C20.8438 28.4616 21.0029 28.7274 21.0736 28.8724H21.1089C21.0501 28.5281 21.0206 27.9451 21.0206 27.1234V18.75H23.0446V31.7451Z" fill="white"/>
<path d="M32.944 31.7451H25.8291V18.75H32.6612V20.5806H27.9327V24.2598H32.2901V26.0812H27.9327V29.9236H32.944V31.7451Z" fill="white"/>
<path d="M43.0556 20.5806H39.4142V31.7451H37.3105V20.5806H33.678V18.75H43.0556V20.5806Z" fill="white"/>
</g>
<defs>
<clipPath id="clip0_4_26">
<rect width="50" height="50" fill="white"/>
</clipPath>
</defs>
</svg>
