<?xml version="1.0" encoding="utf-8"?>
<!-- Generator: Adobe Illustrator 25.2.0, SVG Export Plug-In . SVG Version: 6.00 Build 0)  -->
<svg version="1.1" id="Layer_1" xmlns="http://www.w3.org/2000/svg" xmlns:xlink="http://www.w3.org/1999/xlink" x="0px" y="0px"
	 viewBox="0 0 50 50" style="enable-background:new 0 0 50 50;" xml:space="preserve">
<style type="text/css">
	.st0{fill:url(#SVGID_1_);}
</style>
<radialGradient id="SVGID_1_" cx="-962.476" cy="1414.7438" r="1.2123" gradientTransform="matrix(0 38.301 44.1227 0 -62396.8867 36866.0078)" gradientUnits="userSpaceOnUse">
	<stop  offset="0" style="stop-color:#20C6B7"/>
	<stop  offset="1" style="stop-color:#4D9ABF"/>
</radialGradient>
<path class="st0" d="M35.9,18.4L35.9,18.4C35.9,18.4,35.9,18.4,35.9,18.4c-0.1-0.1-0.1-0.1-0.1-0.1l0.9-5.7l4.4,4.4l-4.6,1.9
	c0,0,0,0,0,0h0c0,0,0,0,0,0C36.4,18.7,36.1,18.5,35.9,18.4z M42.3,18l4.7,4.7c1,1,1.5,1.5,1.6,2c0,0.1,0,0.2,0.1,0.3l-11.2-4.8
	c0,0,0,0,0,0c0,0-0.1,0-0.1-0.1s0.1-0.1,0.1-0.1l0,0C37.5,20.1,42.3,18,42.3,18z M48.5,26.5c-0.2,0.5-0.7,0.9-1.5,1.7l-5.3,5.3
	l-6.8-1.4l0,0c-0.1,0-0.1,0-0.1-0.1c-0.1-0.6-0.3-1.1-0.8-1.4c0,0,0-0.1,0-0.1c0,0,0,0,0,0l1.3-7.9l0,0c0-0.1,0-0.1,0.1-0.1
	c0.6-0.1,1.1-0.4,1.4-0.8c0,0,0,0,0,0c0,0,0.1,0,0.1,0L48.5,26.5L48.5,26.5z M40.5,34.8l-8.7,8.7l1.5-9.2l0,0c0,0,0,0,0,0
	c0,0,0,0,0.1-0.1l0,0c0.3-0.1,0.6-0.4,0.8-0.6c0,0,0.1-0.1,0.1-0.1c0,0,0,0,0,0L40.5,34.8L40.5,34.8z M29.9,45.3l-1,1L18.1,30.6
	c0,0,0,0,0,0c0,0,0,0,0-0.1c0,0,0,0,0-0.1l0,0c0,0,0.1-0.1,0.1-0.1l0,0l0,0c0,0,0-0.1,0.1-0.1c0,0,0.1,0,0.1,0l12,2.5
	c0,0,0.1,0,0.1,0c0,0,0,0,0,0.1c0.2,0.6,0.6,1.2,1.2,1.4c0,0,0,0.1,0,0.1c0,0,0,0,0,0.1C31.6,35.3,30.3,43.2,29.9,45.3z M27.9,47.4
	c-0.7,0.7-1.1,1.1-1.6,1.2c-0.5,0.2-1,0.2-1.5,0c-0.6-0.2-1.1-0.7-2-1.6L11.9,36.1l2.8-4.4c0,0,0,0,0-0.1c0,0,0.1,0,0.1,0
	c0.7,0.2,1.4,0.2,2-0.1c0,0,0.1,0,0.1,0c0,0,0,0,0,0L27.9,47.4L27.9,47.4z M10.8,35l-2.5-2.5l4.9-2.1c0,0,0,0,0,0c0,0,0.1,0,0.1,0.1
	c0,0.1,0.1,0.2,0.2,0.2l0,0c0,0,0,0,0,0.1L10.8,35L10.8,35z M7.2,31.4l-3.2-3.2c-0.5-0.5-0.9-0.9-1.2-1.3l9.6,2c0,0,0,0,0,0
	c0.1,0,0.1,0,0.1,0.1c0,0.1-0.1,0.1-0.1,0.1l0,0C12.5,29.2,7.2,31.4,7.2,31.4z M2.3,25.4c0-0.2,0-0.4,0.1-0.6c0.2-0.6,0.7-1.1,1.6-2
	l4-4c1.9,2.7,3.7,5.4,5.6,8.1c0,0,0.1,0.1,0,0.1c-0.2,0.2-0.4,0.4-0.5,0.6c0,0,0,0.1-0.1,0.1c0,0,0,0-0.1,0h0L2.3,25.4L2.3,25.4z
	 M9.2,17.6l5.4-5.4c0.5,0.2,2.4,1,4,1.7c1.3,0.5,2.4,1,2.8,1.2c0,0,0.1,0,0.1,0.1c0,0,0,0,0,0.1c-0.2,0.8,0.1,1.6,0.6,2.2
	c0,0,0,0.1,0,0.1l0,0l-5.5,8.6c0,0,0,0-0.1,0.1c0,0-0.1,0-0.1,0c-0.2-0.1-0.4-0.1-0.7-0.1c-0.2,0-0.4,0-0.6,0.1h0c0,0,0,0-0.1,0
	c0,0,0,0-0.1-0.1C15,26.1,9.2,17.6,9.2,17.6z M15.7,11.1l7-7c1-1,1.5-1.5,2-1.6c0.5-0.2,1-0.2,1.5,0c0.6,0.2,1.1,0.7,2,1.6l1.5,1.5
	l-5,7.8c0,0,0,0,0,0.1c0,0-0.1,0-0.1,0c-0.8-0.2-1.7-0.1-2.3,0.4c0,0-0.1,0-0.1,0C21.5,13.5,16.5,11.4,15.7,11.1z M30.9,6.6l4.6,4.6
	l-1.1,6.9v0c0,0,0,0,0,0c0,0,0,0-0.1,0c-0.2,0.1-0.5,0.2-0.7,0.3c0,0,0,0,0,0c0,0,0,0,0,0c0,0,0,0-0.1,0l-7-3l0,0c0,0-0.1,0-0.1-0.1
	c0-0.4-0.2-0.8-0.4-1.1c0-0.1-0.1-0.1,0-0.2C25.9,14.3,30.9,6.6,30.9,6.6z M26.1,17l6.6,2.8c0,0,0.1,0,0.1,0.1c0,0,0,0,0,0.1
	c0,0.1,0,0.2,0,0.3v0.2c0,0,0,0.1-0.1,0.1l0,0C31.6,21,18,26.8,18,26.8s0,0-0.1,0c0,0,0-0.1,0-0.1c0,0,0,0,0,0l5.4-8.4l0,0
	c0-0.1,0.1-0.1,0.1-0.1l0.1,0c0.1,0,0.2,0,0.3,0c0.8,0,1.6-0.4,2-1.1c0,0,0,0,0,0C26,17,26.1,17,26.1,17z M18.5,28.2l14.9-6.3
	c0,0,0,0,0,0c0.1,0.1,0.2,0.1,0.2,0.2l0,0c0,0,0.1,0,0.1,0.1c0,0,0,0,0,0L32.5,30l0,0c0,0.1,0,0.1-0.1,0.1c-0.7,0-1.3,0.4-1.7,1l0,0
	c0,0,0,0.1-0.1,0.1c0,0-0.1,0-0.1,0l-11.9-2.4C18.7,28.8,18.6,28.2,18.5,28.2z"/>
</svg>
