<?xml version="1.0" encoding="utf-8"?>
<!-- Generator: Adobe Illustrator 25.2.0, SVG Export Plug-In . SVG Version: 6.00 Build 0)  -->
<svg version="1.1" id="Layer_1" xmlns="http://www.w3.org/2000/svg" xmlns:xlink="http://www.w3.org/1999/xlink" x="0px" y="0px"
	 viewBox="0 0 50 50" style="enable-background:new 0 0 50 50;" xml:space="preserve">
<style type="text/css">
	.st0{fill:#FFFFFF;}
</style>
<g>
	<path class="st0" d="M25,50L25,50C11.2,50,0,38.8,0,25l0,0C0,11.2,11.2,0,25,0l0,0c13.7,0,25,11.2,25,25l0,0C50,38.8,38.8,50,25,50
		z"/>
	<path d="M14.4,19.2H22v0.6h-6.9v4.5h6.5v0.6h-6.5v5h7v0.6h-7.7C14.4,30.5,14.4,19.2,14.4,19.2z M22.6,19.2h0.8l3.6,5l3.6-5l5-6.3
		l-8.1,11.8l4.2,5.8h-0.8L27,25.2l-3.8,5.3h-0.8l4.2-5.8L22.6,19.2L22.6,19.2z M32,19.8v-0.6h8.6v0.6h-4v10.7h-0.7V19.8H32L32,19.8z
		 M4.9,19.2h0.9l12,17.9l-4.9-6.6L5.6,20v10.5H4.9V19.2z M40.5,29.7c-0.1,0-0.2-0.1-0.2-0.3c0-0.1,0.1-0.3,0.2-0.3
		c0.1,0,0.2,0.1,0.2,0.3C40.8,29.6,40.7,29.7,40.5,29.7L40.5,29.7z M41.2,29.1h0.4c0,0.2,0.2,0.3,0.4,0.3s0.4-0.1,0.4-0.4v-1.7h0.4
		V29c0,0.5-0.3,0.8-0.8,0.8C41.5,29.8,41.2,29.5,41.2,29.1L41.2,29.1z M43.2,29.1h0.4c0,0.2,0.3,0.4,0.6,0.4s0.5-0.2,0.5-0.4
		c0-0.2-0.1-0.3-0.5-0.4l-0.3-0.1c-0.4-0.1-0.6-0.3-0.6-0.7c0-0.4,0.4-0.7,0.9-0.7s0.9,0.3,0.9,0.7h-0.4c0-0.2-0.2-0.4-0.5-0.4
		s-0.5,0.1-0.5,0.4c0,0.2,0.1,0.3,0.4,0.3l0.3,0.1c0.5,0.1,0.7,0.3,0.7,0.7c0,0.5-0.4,0.8-0.9,0.8C43.6,29.8,43.2,29.5,43.2,29.1
		L43.2,29.1z"/>
</g>
</svg>
