<svg width="50" height="50" viewBox="0 0 50 50" fill="none" xmlns="http://www.w3.org/2000/svg">
<g clip-path="url(#clip0_4_27)">
<path d="M22.032 49.968C17.3518 49.6307 12.7259 48.4526 9.88896 46.8755C8.27302 45.9772 7.04189 44.8732 6.55879 43.8893L6.27136 43.3038V24.9409V6.57802L6.49881 6.1162C7.51521 4.05263 10.759 2.19231 15.2872 1.07609C16.8243 0.697166 19.0433 0.319812 20.8537 0.129526C22.7022 -0.0648308 27.602 -0.0352608 29.4459 0.181668C34.3468 0.757454 38.5172 2.0465 41.0872 3.78C42.0783 4.4485 43.0953 5.51816 43.4398 6.25445L43.7352 6.88573L43.7099 25.1931L43.6846 43.5005L43.4475 43.9823C43.3171 44.2472 42.9232 44.7685 42.5722 45.1406C40.4351 47.4059 35.8513 49.0817 29.8388 49.7957C28.6133 49.9413 23.2893 50.0587 22.032 49.968ZM30.657 34.2335C30.639 34.1866 29.9394 33.5633 29.1023 32.8483C28.2651 32.1334 27.5441 31.5148 27.5 31.4738C27.456 31.4327 27.6106 31.2873 27.8438 31.1507C28.0769 31.014 28.5235 30.6339 28.8362 30.3059C29.7509 29.3468 30.1824 28.1621 30.1824 26.6103C30.1824 25.0826 29.717 23.85 28.7848 22.909C27.8453 21.9606 26.7665 21.5531 25.1956 21.5531C22.7741 21.5531 20.9144 22.966 20.3208 25.2567C20.1166 26.0447 20.1177 27.6368 20.323 28.3354C20.8583 30.1578 22.3161 31.4814 24.1306 31.7922C24.7446 31.8974 24.8277 31.9427 25.2463 32.4004C25.4951 32.6724 26.0056 33.2153 26.3808 33.6068L27.0629 34.3188H28.8764C29.8738 34.3188 30.675 34.2804 30.657 34.2335ZM24.4381 29.156C24.0015 28.9284 23.8365 28.7517 23.5875 28.2456C23.3952 27.8547 23.3624 27.6324 23.3602 26.7085C23.3581 25.7697 23.3879 25.5669 23.5887 25.1592C23.9172 24.4921 24.3698 24.1764 25.07 24.1257C26.0447 24.055 26.6073 24.5334 26.9022 25.6829C27.2637 27.0924 26.8661 28.5908 25.9988 29.0881C25.5437 29.349 24.8649 29.3786 24.4381 29.156ZM16.4001 31.7722C18.3014 31.4116 19.3807 30.3059 19.3807 28.7187C19.3807 27.3106 18.6839 26.4901 16.7581 25.6304C15.6557 25.1382 15.2564 24.8293 15.2564 24.4684C15.2564 24.1692 15.6353 23.8414 16.0765 23.7591C16.5072 23.6786 17.6496 23.8771 18.3242 24.1496L18.8897 24.378V23.1263V21.8745L18.276 21.7384C17.8967 21.6542 17.0996 21.6037 16.1893 21.6063C14.8998 21.6063 14.6473 21.6377 14.162 21.8304C12.7446 22.3932 12.0719 23.3517 12.0827 24.7937C12.0928 26.1435 12.8049 26.9855 14.5772 27.743C15.6229 28.19 16.042 28.5303 16.042 28.9325C16.042 29.7871 14.618 29.8923 13.1103 29.149C12.6974 28.9454 12.3264 28.7623 12.2859 28.742C12.2454 28.7217 12.2123 29.3065 12.2123 30.0414C12.2123 31.3717 12.2137 31.3781 12.4546 31.4698C13.3616 31.8147 15.3662 31.9683 16.4001 31.7722ZM38.1364 30.5382V29.4089H36.418H34.6995V25.5301V21.6513H33.1774H31.6554V26.6594V31.6674H34.8959H38.1364V30.5382ZM27.5311 10.7489C30.5557 10.5391 32.8229 10.143 34.8181 9.47593C36.8057 8.81136 37.9798 8.00722 38.2424 7.13065C38.3436 6.79287 38.3364 6.66474 38.195 6.29438C37.5609 4.63402 34.0186 3.35836 28.6057 2.84114C26.2904 2.61986 22.0795 2.69159 19.8718 2.98981C16.5032 3.44495 13.7694 4.29036 12.5539 5.25286C10.0949 7.2 12.6953 9.3416 18.7425 10.3496C21.3645 10.7867 24.7615 10.941 27.5311 10.7489Z" fill="#00BCF2"/>
</g>
<defs>
<clipPath id="clip0_4_27">
<rect width="50" height="50" fill="white"/>
</clipPath>
</defs>
</svg>
