<?xml version="1.0" encoding="utf-8"?>
<!-- Generator: Adobe Illustrator 25.2.0, SVG Export Plug-In . SVG Version: 6.00 Build 0)  -->
<svg version="1.1" id="Layer_1" xmlns="http://www.w3.org/2000/svg" xmlns:xlink="http://www.w3.org/1999/xlink" x="0px" y="0px"
	 viewBox="0 0 50 50" style="enable-background:new 0 0 50 50;" xml:space="preserve">
<style type="text/css">
	.st0{fill:#434CFF;}
	.st1{fill:#FFFFFF;}
</style>
<g>
	<path class="st0" d="M45.4,50H4.6C2.1,50,0,47.9,0,45.4V4.6C0,2.1,2.1,0,4.6,0h40.8C47.9,0,50,2.1,50,4.6v40.8
		C50,47.9,47.9,50,45.4,50z"/>
	<path id="XMLID_5_" class="st1" d="M33,20.2c0,0-2.7,8.4-2.9,9.1c-0.1-0.7-2-15.9-2-15.9c-4.6,0-7,3.3-8.3,6.7c0,0-3.3,8.5-3.5,9.2
		c0-0.7-0.5-9.1-0.5-9.1c-0.3-4.2-4.1-6.8-7.3-6.8l3.8,23c4.8,0,7.4-3.3,8.7-6.7c0,0,2.9-7.5,3-7.8c0,0.3,2.1,14.5,2.1,14.5
		c4.8,0,7.4-3,8.8-6.4l6.8-16.6C36.8,13.5,34.3,16.8,33,20.2z"/>
</g>
</svg>
